<?xml version="1.0" encoding="utf-8"?>
<!-- Generator: Adobe Illustrator 21.1.0, SVG Export Plug-In . SVG Version: 6.00 Build 0)  -->
<svg version="1.1" id="Layer_1" xmlns="http://www.w3.org/2000/svg" xmlns:xlink="http://www.w3.org/1999/xlink" x="0px" y="0px"
	 viewBox="0 0 28.4 28.4" style="enable-background:new 0 0 28.4 28.4;" xml:space="preserve">
<g>
	<polygon points="-4.5,28.3 4.8,19 7.7,21.9 14.2,28.3 11.3,28.3 	"/>
</g>
<g>
	<polygon points="6.1,28.3 20.5,14 24.9,18.4 34.8,28.3 30.4,28.3 	"/>
</g>
<path d="M19.3,17.5"/>
<rect x="48.8" y="11.2" transform="matrix(2.239257e-11 1 -1 2.239257e-11 76.8483 -49.1683)" width="28.4" height="5.2"/>
<rect x="-40.8" y="-6.5" transform="matrix(-1 6.736998e-11 -6.736998e-11 -1 -53.15 -7.8192)" width="28.4" height="5.2"/>
<rect x="-38.9" y="10.5" transform="matrix(-1 6.736998e-11 -6.736998e-11 -1 -49.4833 26.1539)" width="28.4" height="5.2"/>
<circle cx="9.2" cy="7.6" r="4.3"/>
</svg>
