<?xml version="1.0" encoding="utf-8"?>
<!-- Generator: Adobe Illustrator 21.1.0, SVG Export Plug-In . SVG Version: 6.00 Build 0)  -->
<svg version="1.1" id="Layer_1" xmlns="http://www.w3.org/2000/svg" xmlns:xlink="http://www.w3.org/1999/xlink" x="0px" y="0px"
	 viewBox="0 0 28.4 28.4" style="enable-background:new 0 0 28.4 28.4;" xml:space="preserve">
<style type="text/css">
	.st0{stroke:#FFFFFF;stroke-width:0.5;stroke-miterlimit:10;}
</style>
<g>
	<polygon points="30.1,-19.3 39.4,-28.7 42.3,-25.8 48.8,-19.3 45.9,-19.3 	"/>
</g>
<g>
	<polygon points="40.7,-19.3 55,-33.7 59.5,-29.2 69.4,-19.3 65,-19.3 	"/>
</g>
<path d="M53.9-30.2"/>
<rect x="0" y="23.2" width="28.4" height="5.2"/>
<rect x="0" y="15.4" width="28.4" height="5.2"/>
<rect x="16.4" y="0" width="11.9" height="5.2"/>
<rect x="16.4" y="7.7" width="11.9" height="5.2"/>
<circle class="st0" cx="35.4" cy="-35.5" r="4.3"/>
<circle class="st0" cx="39.2" cy="-36.5" r="4.3"/>
<circle class="st0" cx="43" cy="-37.5" r="4.3"/>
<circle class="st0" cx="47.3" cy="-38.5" r="4.3"/>
<circle class="st0" cx="51.6" cy="-39.5" r="4.3"/>
<circle class="st0" cx="55.1" cy="-40.5" r="4.3"/>
<circle class="st0" cx="59.1" cy="-40.5" r="4.3"/>
<circle class="st0" cx="62.9" cy="-39.5" r="4.3"/>
<polygon points="4.7,6.3 0.1,9.6 2.2,12.5 7.1,8.9 12.1,12.5 14.2,9.6 9.5,6.3 14.2,6.3 14.2,2.8 0.1,2.8 0.1,6.3 "/>
</svg>
