<?xml version="1.0" encoding="utf-8"?>
<!-- Generator: Adobe Illustrator 21.1.0, SVG Export Plug-In . SVG Version: 6.00 Build 0)  -->
<svg version="1.1" id="Layer_1" xmlns="http://www.w3.org/2000/svg" xmlns:xlink="http://www.w3.org/1999/xlink" x="0px" y="0px"
	 viewBox="0 0 28.4 28.4" style="enable-background:new 0 0 28.4 28.4;" xml:space="preserve">
<style type="text/css">
	.st0{fill:#FFFFFF;}
</style>
<g>
	<polygon points="12.5,7.6 19.1,14.3 17.1,16.4 12.5,21 12.5,18.9 	"/>
</g>
<path d="M19.3,17.5"/>
<path d="M22.4,0.8"/>
<rect x="48.8" y="11.2" transform="matrix(2.239257e-11 1 -1 2.239257e-11 76.8483 -49.1683)" width="28.4" height="5.2"/>
<rect x="0" y="0" transform="matrix(-1 6.736998e-11 -6.736998e-11 -1 28.35 5.1808)" width="28.4" height="5.2"/>
<rect x="0" y="23.1" transform="matrix(-1 6.736998e-11 -6.736998e-11 -1 28.35 51.3205)" width="28.4" height="5.2"/>
<circle class="st0" cx="3.9" cy="2.6" r="1.8"/>
<circle class="st0" cx="10.7" cy="2.6" r="1.8"/>
<circle class="st0" cx="17.6" cy="2.6" r="1.8"/>
<circle class="st0" cx="24.5" cy="2.6" r="1.8"/>
<circle class="st0" cx="3.9" cy="25.7" r="1.8"/>
<circle class="st0" cx="10.7" cy="25.7" r="1.8"/>
<circle class="st0" cx="17.6" cy="25.7" r="1.8"/>
<circle class="st0" cx="24.5" cy="25.7" r="1.8"/>
</svg>
