<?xml version="1.0" encoding="utf-8"?>
<!-- Generator: Adobe Illustrator 16.0.4, SVG Export Plug-In . SVG Version: 6.00 Build 0)  -->
<!DOCTYPE svg PUBLIC "-//W3C//DTD SVG 1.1//EN" "http://www.w3.org/Graphics/SVG/1.1/DTD/svg11.dtd">
<svg version="1.1" id="Layer_1" xmlns="http://www.w3.org/2000/svg" xmlns:xlink="http://www.w3.org/1999/xlink" x="0px" y="0px"
	 width="28.35px" height="31.225px" viewBox="0 6 28.35 25.225" enable-background="new 0 0 28.35 31.225" xml:space="preserve">
<polygon fill="#1D1D1B" points="11.295,23.639 5.644,27.744 8.159,31.206 14.194,26.821 20.229,31.206 22.745,27.744 17.093,23.639
	22.737,23.639 22.737,19.36 5.651,19.36 5.651,23.639 "/>
<polygon fill="#1D1D1B" points="14.229,6.399 14.2,6.358 14.186,6.368 14.172,6.358 14.143,6.399 5.636,12.58 5.667,12.623
	5.667,17.468 9.946,17.468 9.946,14.738 11.97,13.267 11.97,14.829 16.248,14.829 16.248,13.155 18.474,14.772 18.474,17.468
	22.752,17.468 22.736,12.58 "/>
</svg>
