<?xml version="1.0" encoding="utf-8"?>
<!-- Generator: Adobe Illustrator 16.0.4, SVG Export Plug-In . SVG Version: 6.00 Build 0)  -->
<!DOCTYPE svg PUBLIC "-//W3C//DTD SVG 1.1//EN" "http://www.w3.org/Graphics/SVG/1.1/DTD/svg11.dtd">
<svg version="1.1" id="Layer_1" xmlns="http://www.w3.org/2000/svg" xmlns:xlink="http://www.w3.org/1999/xlink" x="0px" y="0px"
	 width="28.35px" height="31.225px" viewBox="0 0 28.35 31.225" enable-background="new 0 0 28.35 31.225" xml:space="preserve">
<polygon fill="#1D1D1B" points="11.299,23.651 5.644,27.761 8.161,31.225 14.2,26.837 20.239,31.225 22.756,27.761 17.101,23.651 
	22.748,23.651 22.748,19.371 5.652,19.371 5.652,23.651 "/>
<polygon fill="#1D1D1B" points="9.949,13.197 9.949,11.999 14.191,8.917 18.482,12.034 18.482,14.732 22.764,14.732 22.764,9.873 
	22.724,9.873 22.747,9.84 14.234,3.656 14.206,3.614 14.191,3.624 14.179,3.614 14.149,3.656 5.636,9.84 5.667,9.883 5.667,17.478 
	9.949,17.478 14.14,17.478 14.14,13.197 "/>
</svg>
