<?xml version="1.0" encoding="utf-8"?>
<!-- Generator: Adobe Illustrator 16.0.4, SVG Export Plug-In . SVG Version: 6.00 Build 0)  -->
<!DOCTYPE svg PUBLIC "-//W3C//DTD SVG 1.1//EN" "http://www.w3.org/Graphics/SVG/1.1/DTD/svg11.dtd">
<svg version="1.1" id="Layer_1" xmlns="http://www.w3.org/2000/svg" xmlns:xlink="http://www.w3.org/1999/xlink" x="0px" y="0px"
	 width="28.35px" height="36.225px" viewBox="0 0 28.35 36.225" enable-background="new 0 0 28.35 36.225" xml:space="preserve">
<polygon fill="#1D1D1B" points="11.237,28.636 5.569,32.753 8.091,36.225 14.143,31.827 20.195,36.225 22.717,32.753 17.05,28.636 
	22.71,28.636 22.71,24.346 5.577,24.346 5.577,28.636 "/>
<polygon fill="#1D1D1B" points="12.753,10.516 17.253,7.247 22.768,7.247 22.768,2.957 15.884,2.957 15.884,3.169 15.774,3.019 
	5.479,10.498 5.563,10.614 5.563,14.807 10.017,14.807 5.518,18.075 5.602,18.191 5.602,22.385 22.726,22.385 22.726,18.094 
	12.791,18.094 17.291,14.825 22.807,14.825 22.807,10.535 22.688,10.535 22.688,10.516 "/>
</svg>
