<?xml version="1.0" encoding="utf-8"?>
<!-- Generator: Adobe Illustrator 16.0.4, SVG Export Plug-In . SVG Version: 6.00 Build 0)  -->
<!DOCTYPE svg PUBLIC "-//W3C//DTD SVG 1.1//EN" "http://www.w3.org/Graphics/SVG/1.1/DTD/svg11.dtd">
<svg version="1.1" id="Layer_1" xmlns="http://www.w3.org/2000/svg" xmlns:xlink="http://www.w3.org/1999/xlink" x="0px" y="0px"
	 width="28.35px" height="36.225px" viewBox="0 0 28.35 36.225" enable-background="new 0 0 28.35 36.225" xml:space="preserve">
<polygon fill="#1D1D1B" points="11.293,28.565 5.667,32.652 8.17,36.098 14.178,31.732 20.186,36.098 22.69,32.652 17.063,28.565 
	22.683,28.565 22.683,24.305 5.674,24.305 5.674,28.565 "/>
<path fill="#1D1D1B" d="M23.278,13.857l-6.151-8.468l-0.049,0.036V5.351h-5.787v0.078l-0.032-0.024l-6.154,8.469l-0.04,0.029
	l0.01,0.012l-0.01,0.015l0.04,0.029l6.154,8.47l0.032-0.025v0.025h5.787v-0.054l0.049,0.036l6.151-8.468l0.042-0.029L23.312,13.9
	l0.008-0.013L23.278,13.857z M14.945,18.167h-1.516l-3.089-4.252l3.129-4.305h1.46l3.117,4.29L14.945,18.167z"/>
</svg>
