<?xml version="1.0" encoding="utf-8"?>
<!-- Generator: Adobe Illustrator 16.0.4, SVG Export Plug-In . SVG Version: 6.00 Build 0)  -->
<!DOCTYPE svg PUBLIC "-//W3C//DTD SVG 1.1//EN" "http://www.w3.org/Graphics/SVG/1.1/DTD/svg11.dtd">
<svg version="1.1" id="Layer_1" xmlns="http://www.w3.org/2000/svg" xmlns:xlink="http://www.w3.org/1999/xlink" x="0px" y="0px"
	 width="28.35px" height="36.225px" viewBox="0 0 28.35 36.225" enable-background="new 0 0 28.35 36.225" xml:space="preserve">
<polygon fill="#1D1D1B" points="11.338,28.718 5.733,32.79 8.228,36.225 14.212,31.874 20.198,36.225 22.693,32.79 17.088,28.718 
	22.686,28.718 22.686,24.475 5.74,24.475 5.74,28.718 "/>
<polygon fill="#1D1D1B" points="5.661,10.79 5.644,15.034 15.589,15.052 11.138,18.284 5.694,18.284 5.677,22.529 12.491,22.529 
	12.491,22.32 12.6,22.47 22.782,15.07 22.782,10.808 18.295,10.808 22.782,7.575 22.782,3.312 5.729,3.312 5.711,7.557 15.55,7.557 
	11.1,10.79 "/>
</svg>
