<?xml version="1.0" encoding="utf-8"?>
<!-- Generator: Adobe Illustrator 16.0.4, SVG Export Plug-In . SVG Version: 6.00 Build 0)  -->
<!DOCTYPE svg PUBLIC "-//W3C//DTD SVG 1.1//EN" "http://www.w3.org/Graphics/SVG/1.1/DTD/svg11.dtd">
<svg version="1.1" id="Layer_1" xmlns="http://www.w3.org/2000/svg" xmlns:xlink="http://www.w3.org/1999/xlink" x="0px" y="0px"
	 width="28.35px" height="28.35px" viewBox="0 0 28.35 28.35" enable-background="new 0 0 28.35 28.35" xml:space="preserve">
<g>
	<path fill="#1D1D1B" d="M10.154,28.351h2.748v-0.024h0.011l-0.019-8.403h-1.281l1.252-0.908l-0.015-0.021l0.015-3.292h-0.019
		l0.011-0.017l-3.989-2.897l-0.013-0.02l-0.006,0.004l-0.006-0.004l-0.016,0.02l-3.989,2.897l0.015,0.021l-0.005,3.292h0.009
		L4.848,19.01v0.005l1.25,0.908H4.867l-0.033,8.428H7.51 M6.845,17.977H6.86v-1.279l1.989-1.445l2.011,1.461v0.007h-0.016v1.281
		l-1.988,1.445l-2.01-1.462V17.977z M10.906,26.33H6.875v-4.398h4.031V26.33z"/>
	<polyline fill="#1D1D1B" points="4.848,19.015 4.846,19.015 4.848,19.01 4.848,18.998 4.839,18.998 	"/>
</g>
<g>
	<path fill="#1D1D1B" d="M20.708,28.351h2.748v-0.024h0.012l-0.02-8.403h-1.28l1.252-0.908l-0.015-0.021l0.015-3.292h-0.019
		l0.012-0.017l-3.99-2.897l-0.013-0.02l-0.007,0.004l-0.006-0.004l-0.015,0.02l-3.988,2.897l0.015,0.021l-0.005,3.292h0.009
		l-0.009,0.012v0.005l1.248,0.908h-1.229l-0.033,8.428h2.676 M17.4,17.977h0.016v-1.279l1.987-1.445l2.012,1.461v0.007H21.4v1.281
		l-1.988,1.445L17.4,17.985V17.977z M21.462,26.33h-4.031v-4.398h4.031V26.33z"/>
	<polyline fill="#1D1D1B" points="15.405,19.015 15.402,19.015 15.405,19.01 15.405,18.998 15.395,18.998 	"/>
</g>
<g>
	<path fill="#1D1D1B" d="M15.248,14.386V8.761l0.011-0.491H9.393V0h14.123v8.574h-3.219L15.248,14.386z M16.99,8.788v0.935
		l2.513-2.891h2.271V1.743H11.136v4.785h5.901L16.99,8.788z"/>
</g>
</svg>
