<?xml version="1.0" encoding="utf-8"?>
<!-- Generator: Adobe Illustrator 16.0.4, SVG Export Plug-In . SVG Version: 6.00 Build 0)  -->
<!DOCTYPE svg PUBLIC "-//W3C//DTD SVG 1.1//EN" "http://www.w3.org/Graphics/SVG/1.1/DTD/svg11.dtd">
<svg version="1.1" id="Layer_1" xmlns="http://www.w3.org/2000/svg" xmlns:xlink="http://www.w3.org/1999/xlink" x="0px" y="0px"
	 width="28.35px" height="28.35px" viewBox="0 0 28.35 28.35" enable-background="new 0 0 28.35 28.35" xml:space="preserve">
<g>
	<path fill="#1D1D1B" d="M6.624,26.001H2.451l-0.767-0.787v-7.439l0.767-0.788h4.855l0.763,0.861l-0.681,7.439L6.624,26.001z
		 M3.217,24.426h2.709l0.537-5.864H3.217V24.426z"/>
</g>
<g>
	<polygon fill="#1D1D1B" points="14.951,27.442 14.383,27.424 9.085,25.067 6.583,25.512 6.322,23.959 9.049,23.474 9.485,23.529 
		14.711,25.854 24.389,22.22 23.81,21.424 16.255,22.006 16.14,20.434 24.115,19.821 24.786,20.134 26.234,22.124 25.883,23.335 	
		"/>
</g>
<g>
	<polygon fill="#1D1D1B" points="17.868,22.79 14.462,22.79 14.189,22.739 11.743,21.782 12.288,20.311 14.602,21.214 
		15.877,21.214 14.003,19.475 6.459,19.653 6.423,18.078 14.273,17.893 14.805,18.096 18.382,21.417 	"/>
</g>
<g>
	<path fill="#1D1D1B" d="M16.723,17.215l-8.689-6.803L7.74,9.9L7.229,6.335l0.176-0.627l2.701-3.239l0.582-0.275h4l0.497,0.188
		l2.044,1.789l2.494-1.831l0.445-0.146h2.726l0.511,0.201l3.237,2.975l0.218,0.833l-1.534,4.813l-0.262,0.381l-7.411,5.816
		L16.723,17.215z M9.211,9.353l7.976,6.245l6.757-5.303l1.304-4.092L22.602,3.77h-2.188l-2.782,2.042L16.69,5.77l-2.285-2H11.04
		L8.796,6.461L9.211,9.353z"/>
</g>
</svg>
