<?xml version="1.0" encoding="utf-8"?>
<!-- Generator: Adobe Illustrator 16.0.4, SVG Export Plug-In . SVG Version: 6.00 Build 0)  -->
<!DOCTYPE svg PUBLIC "-//W3C//DTD SVG 1.1//EN" "http://www.w3.org/Graphics/SVG/1.1/DTD/svg11.dtd">
<svg version="1.1" id="Layer_1" xmlns="http://www.w3.org/2000/svg" xmlns:xlink="http://www.w3.org/1999/xlink" x="0px" y="0px"
	 width="28.35px" height="28.35px" viewBox="0 0 28.35 28.35" enable-background="new 0 0 28.35 28.35" xml:space="preserve">
<path fill="#1D1D1B" d="M23.234,3.8h-1.609h-2.577h-2.082H14.86h-2.082H8.591v3.46L2.571,7.657l-2.112,10.94l5.355,4.779
	l1.375,4.973h20.703V16.495V4.841V3.8H23.234z M23.704,5.881h2.106v8.535h-2.106V5.881z M19.047,5.881h2.105v8.535h-2.105V5.881z
	 M14.86,5.881h2.105v8.535H14.86V5.881z M10.673,13.533l1.768-0.166l0.338-0.796v1.844h-2.105V13.533z M10.673,5.881h2.105v1.435
	l-0.263-0.313l-1.842,0.121V5.881z M25.811,26.269h-8.67l3.833-5.328l-1.688-1.216l-2.079,2.89l-0.43-0.724l-1.789,1.062
	l1.969,3.315H8.772l-1.116-4.036l-4.931-4.399l1.584-8.206l7.288-0.48l0.249,0.295l-0.836,1.969L5.584,11.92l0.17,3.138l2.077-0.113
	l-0.061-1.14l0.821-0.077v2.767h4.187h2.082h2.105h2.082h2.577h1.609h2.577V26.269z"/>
</svg>
