<?xml version="1.0" encoding="utf-8"?>
<!-- Generator: Adobe Illustrator 16.0.4, SVG Export Plug-In . SVG Version: 6.00 Build 0)  -->
<!DOCTYPE svg PUBLIC "-//W3C//DTD SVG 1.1//EN" "http://www.w3.org/Graphics/SVG/1.1/DTD/svg11.dtd">
<svg version="1.1" id="Layer_1" xmlns="http://www.w3.org/2000/svg" xmlns:xlink="http://www.w3.org/1999/xlink" x="0px" y="0px"
	 width="28.35px" height="28.35px" viewBox="0 0 28.35 28.35" enable-background="new 0 0 28.35 28.35" xml:space="preserve">
<g>
	<path fill="#1D1D1B" d="M12.221,9.174L7.647,8.291L5.649,10.53l-1.212,0.335v-0.594H0.298l0.585,6.315L0.675,20.24l3.762-0.346
		V19.76h4.089h4.874h0.435v-1.947V17.14v-1.078v-0.87v-0.88v-0.87v-1.75h-1.447L12.221,9.174z M3.567,19.1l-1.966,0.182l0.154-2.711
		l-0.503-5.43h2.314V19.1z M8.526,13.442v0.87v0.88v0.87v1.078v0.673v1.078H4.44v-3.625v-0.077v-3.423L6.127,11.3l1.84-2.062
		l3.43,0.663l0.201,3.047l-0.124,0.104l-0.823-0.35l-0.213-2.269l-1.312,0.07l0.047,0.87l0.477-0.026l0.033,0.344H8.526V13.442z
		 M10.167,13.442H9.396v-0.881h0.369L9.834,13.3L10.167,13.442z M12.964,18.891H9.396V18.01h3.568V18.891z M12.964,16.943H9.396
		v-0.881h3.568V16.943z M12.964,15.192H9.396v-0.88h3.568V15.192z M12.964,12.561v0.881h-0.6l0.131-0.109l-0.051-0.771H12.964z"/>
	<path fill="#1D1D1B" d="M23.542,10.343v0.686l-1.174-0.325l-1.856-2.08L15.871,9.52l-0.143,2.167h-1.313v8.047h9.127v0.26
		l4.194,0.684l0.2-10.334H23.542z M15.284,12.556h1.259l0.152-2.31l3.496-0.676l1.697,1.903l1.653,0.457v6.933h-8.258V12.556z
		 M26.887,19.657l-2.474-0.403V11.6v-0.331v-0.056h2.636L26.887,19.657z"/>
</g>
</svg>
