<?xml version="1.0" encoding="utf-8"?>
<!-- Generator: Adobe Illustrator 16.0.4, SVG Export Plug-In . SVG Version: 6.00 Build 0)  -->
<!DOCTYPE svg PUBLIC "-//W3C//DTD SVG 1.1//EN" "http://www.w3.org/Graphics/SVG/1.1/DTD/svg11.dtd">
<svg version="1.1" xmlns="http://www.w3.org/2000/svg" xmlns:xlink="http://www.w3.org/1999/xlink" x="0px" y="0px"
	 width="18.207px" height="28.35px" viewBox="0 0 18.207 28.35" enable-background="new 0 0 18.207 28.35" xml:space="preserve">
<g id="Layer_1">
	<polygon fill="#1D1D1B" points="62.934,-0.64 61.574,-0.64 61.574,-5.728 59.869,-5.728 59.869,-0.64 59.867,-0.64 59.867,1.065 
		59.869,1.065 59.869,1.08 61.574,1.08 61.574,1.065 62.934,1.065 62.934,1.094 64.646,1.094 64.646,-5.743 62.934,-5.743 	"/>
	<polygon fill="#1D1D1B" points="115.271,24.827 113.635,27.079 113.635,24.83 111.93,24.83 111.93,31.638 113.635,31.638 
		113.635,29.979 116.649,25.829 	"/>
	<path fill="#1D1D1B" d="M46.594,24.946l-0.018,0.013h-1.319h-1.704v1.704v5.1h1.704v-1.69h3.795v-1.699l0.021-0.015L46.594,24.946z
		 M45.257,26.663h0.478l1.237,1.704h-1.715V26.663z"/>
	<polygon fill="#1D1D1B" points="71.492,-0.626 70.839,-1.526 73.163,-4.724 71.783,-5.726 71.764,-5.699 71.764,-5.713 
		68.735,-5.713 68.735,-4.009 70.536,-4.009 68.745,-1.544 68.729,-1.532 70.622,1.075 70.622,1.074 70.622,1.078 73.177,1.078 
		73.177,-0.626 	"/>
	<rect x="65.799" y="-5.728" fill="#1D1D1B" width="1.704" height="6.807"/>
	<polygon fill="#1D1D1B" points="105.265,19.7 103.734,19.7 103.734,14.598 102.029,14.598 102.029,21.405 102.882,21.405 
		103.734,21.405 105.265,21.405 	"/>
	<polygon fill="#1D1D1B" points="93,19.639 91.47,19.639 91.47,21.344 93,21.344 93.853,21.344 94.705,21.344 94.705,14.536 
		93,14.536 	"/>
	<polygon fill="#1D1D1B" points="75.376,26.563 76.904,26.563 76.904,31.696 78.608,31.696 78.608,26.563 80.142,26.563 
		80.142,24.858 75.376,24.858 	"/>
	<polygon fill="#1D1D1B" points="97.853,19.08 99.489,21.331 100.868,20.329 99.121,17.925 100.868,15.52 99.489,14.518 
		97.853,16.771 97.853,14.521 96.148,14.521 96.148,21.328 97.853,21.328 	"/>
	<polygon fill="#1D1D1B" points="52.247,21.327 54.21,21.327 54.21,19.632 53.122,19.632 51.895,17.942 53.136,16.233 54.21,16.233 
		54.21,14.529 52.271,14.522 49.783,17.937 49.787,17.942 	"/>
	<polygon fill="#1D1D1B" points="12.365,-7.527 12.35,-7.516 12.354,-7.51 12.35,-7.504 12.365,-7.492 14.828,-4.104 14.845,-4.115 
		16.776,-4.115 16.776,-5.82 15.688,-5.82 15.102,-6.627 15.725,-6.627 15.725,-8.332 15.058,-8.332 15.701,-9.219 16.776,-9.219 
		16.776,-10.924 14.828,-10.917 	"/>
	<polygon fill="#1D1D1B" points="19.918,-15.48 19.902,-15.468 19.906,-15.462 19.902,-15.457 19.918,-15.445 22.381,-12.056 
		22.397,-12.068 24.329,-12.068 24.329,-13.773 23.24,-13.773 22.654,-14.58 23.277,-14.58 23.277,-16.285 22.61,-16.285 
		23.254,-17.171 24.329,-17.171 24.329,-18.876 22.381,-18.869 	"/>
	<polygon fill="#1D1D1B" points="9.374,10.557 8.542,10.557 6.399,7.609 8.566,4.627 10.44,4.627 10.44,1.653 7.063,1.653 
		7.063,1.681 7.042,1.665 2.745,7.579 2.717,7.599 2.724,7.609 2.717,7.618 2.745,7.638 7.042,13.553 7.072,13.529 12.35,13.529 
		12.35,10.557 12.35,7.646 9.374,7.646 	"/>
	<path fill="#1D1D1B" d="M61.583,18.075L61.58,18.07l0.003-0.006l-0.016-0.012l-2.463-3.39l-0.013,0.009v-0.016h-3.028v5.103v1.704
		h3.023l0.018,0.013l2.463-3.39L61.583,18.075z M58.245,19.76h-0.477v-3.398h0.463l1.241,1.709L58.245,19.76z"/>
	<path fill="#1D1D1B" d="M15.433,21.506l-4.298-5.915L11.1,15.614v-0.051H7.06v0.055l-0.024-0.018L2.74,21.516l-0.029,0.021
		l0.007,0.01l-0.007,0.011l0.029,0.021l4.295,5.913l0.024-0.018v0.018h4.04v-0.034l0.035,0.023l4.298-5.916l0.028-0.021
		l-0.007-0.007l0.007-0.01L15.433,21.506z M9.61,24.515H8.552l-2.157-2.969l2.185-3.009h1.019l2.179,2.999L9.61,24.515z"/>
	<polygon fill="#FFFFFF" points="8.514,10.159 7.682,10.159 5.539,7.212 7.706,4.23 9.58,4.23 9.58,1.256 6.203,1.256 6.203,1.283 
		6.182,1.268 1.885,7.182 1.856,7.202 1.863,7.212 1.856,7.22 1.885,7.241 6.182,13.155 6.212,13.132 11.489,13.132 11.489,10.159 
		11.489,7.248 8.514,7.248 	"/>
	<path fill="#FFFFFF" d="M14.572,21.109l-4.298-5.916l-0.035,0.023v-0.051h-4.04v0.055l-0.024-0.018L1.88,21.119l-0.029,0.02
		l0.007,0.01L1.851,21.16l0.029,0.02l4.295,5.914l0.024-0.018v0.018h4.04v-0.035l0.035,0.023l4.298-5.916l0.028-0.02l-0.007-0.008
		l0.007-0.01L14.572,21.109z M8.75,24.117H7.692l-2.157-2.969l2.185-3.008h1.019l2.179,2.998L8.75,24.117z"/>
	<path fill="#1D1D1B" d="M59.082-2.361L56.619-5.75L56.6-5.736v-0.029h-2.316v0.031l-0.013-0.009l-2.463,3.389l-0.016,0.012
		l0.004,0.006l-0.004,0.005l0.016,0.013l2.463,3.389l0.013-0.01v0.01H56.6V1.049l0.02,0.014l0.531-0.73l0.568,0.783l1.38-1.002
		l-0.895-1.231l0.878-1.208l0.017-0.013l-0.004-0.005l0.004-0.005L59.082-2.361z M55.14-0.634l-1.237-1.702l1.253-1.724h0.584
		l1.248,1.717l-1.241,1.709H55.14z"/>
	<polygon fill="#FFFFFF" points="62.178,-0.64 60.818,-0.64 60.818,-5.728 59.113,-5.728 59.113,-0.64 59.111,-0.64 59.111,1.065 
		59.113,1.065 59.113,1.08 60.818,1.08 60.818,1.065 62.178,1.065 62.178,1.094 63.891,1.094 63.891,-5.743 62.178,-5.743 	"/>
	<polygon fill="#FFFFFF" points="70.736,-0.626 70.083,-1.526 72.407,-4.724 71.027,-5.726 71.008,-5.699 71.008,-5.713 
		67.979,-5.713 67.979,-4.009 69.78,-4.009 67.989,-1.544 67.973,-1.532 69.866,1.075 69.866,1.074 69.866,1.078 72.421,1.078 
		72.421,-0.626 	"/>
	<rect x="65.043" y="-5.728" fill="#FFFFFF" width="1.704" height="6.807"/>
	<path fill="#FFFFFF" d="M58.326-2.361L55.863-5.75l-0.02,0.014v-0.029h-2.316v0.031l-0.013-0.009l-2.463,3.389l-0.016,0.012
		l0.004,0.006l-0.004,0.005l0.016,0.013l2.463,3.389l0.013-0.01v0.01h2.316V1.049l0.02,0.014l0.531-0.73l0.568,0.783l1.38-1.002
		l-0.895-1.231l0.878-1.208l0.017-0.013l-0.004-0.005l0.004-0.005L58.326-2.361z M54.384-0.634l-1.237-1.702l1.253-1.724h0.584
		l1.248,1.717L54.99-0.634H54.384z"/>
	<polygon fill="#1D1D1B" points="71.644,18.777 73.177,18.777 73.177,17.072 71.644,17.072 71.644,16.211 73.177,16.211 
		73.177,14.506 70.4,14.506 70.4,14.536 69.938,14.536 69.938,21.344 71.644,21.344 	"/>
	<polygon fill="#1D1D1B" points="83.118,18.854 84.652,18.854 84.652,21.42 86.356,21.42 86.356,14.613 84.652,14.613 
		84.652,17.149 83.118,17.149 83.118,14.613 81.413,14.613 81.413,21.42 83.118,21.42 	"/>
	<path fill="#1D1D1B" d="M45.552,21.419h3.116v-0.036l1.418-1.951l-0.079-0.057l-1.564-2.154l1.173-1.615l-1.379-1.002l-0.017,0.023
		h-2.668h-1.705v1.705v5.099h1.705V21.419z M47.96,19.457l-0.187,0.257h-1.143l0.758-1.044L47.96,19.457z M46.981,16.331
		l-1.43,1.967v-1.967H46.981z"/>
	<path fill="#1D1D1B" d="M22.596-10.903l-0.017,0.023h-2.668h-1.704v1.705v5.099h1.704v-0.231l1.253-1.725l1.422,1.956l1.38-1.002
		l-1.748-2.405l1.757-2.416L22.596-10.903z M19.911-9.175h1.43l-1.43,1.967V-9.175z"/>
	<polygon fill="#1D1D1B" points="108.706,24.802 107.248,26.81 105.789,24.802 104.41,25.804 106.194,28.26 104.37,30.771 
		105.749,31.772 107.248,29.71 108.667,31.663 110.046,30.661 108.301,28.26 110.086,25.804 	"/>
	<polygon fill="#1D1D1B" points="9.631,-7.09 8.332,-8.879 8.332,-11.069 6.628,-11.069 6.628,-8.334 6.712,-8.334 6.652,-8.291 
		9.624,-4.201 9.67,-4.234 11.335,-4.234 11.335,-11.037 9.631,-11.037 	"/>
	<polygon fill="#1D1D1B" points="16.898,-16.022 18.197,-14.234 18.197,-12.043 19.902,-12.043 19.902,-14.778 19.817,-14.778 
		19.878,-14.822 16.906,-18.913 16.86,-18.879 15.193,-18.879 15.193,-17.109 13.896,-18.897 13.849,-18.863 12.183,-18.863 
		12.183,-12.06 13.888,-12.06 13.888,-16.007 15.187,-14.22 15.187,-12.027 16.892,-12.027 16.892,-12.075 16.898,-12.075 	"/>
	<polygon fill="#1D1D1B" points="120.166,21.526 120.166,14.723 118.461,14.723 118.461,16.492 117.162,14.705 117.116,14.738 
		115.45,14.738 115.45,21.542 117.155,21.542 117.155,17.595 118.461,19.393 118.461,21.526 	"/>
	<path fill="#1D1D1B" d="M7.17-12.053l0.017-0.022h2.667h1.705v-1.705v-5.1H9.854v0.232L5.79-13.055L7.17-12.053z M9.854-13.78
		H8.425l1.429-1.968V-13.78z"/>
</g>
<g id="Layer_2" display="none">
	<rect x="13.686" y="21.979" display="inline" fill="#1D1D1B" width="1.819" height="2.92"/>
	
		<rect x="5.046" y="-0.759" transform="matrix(0.5879 0.809 -0.809 0.5879 5.5776 -3.3856)" display="inline" fill="#1D1D1B" width="2.131" height="9.08"/>
	<rect x="-1.375" y="0.042" display="inline" fill="#1D1D1B" width="19.83" height="2.131"/>
	<rect x="-2.474" y="26.176" display="inline" fill="#1D1D1B" width="9.213" height="2.131"/>
	<rect x="1.067" y="0.042" display="inline" fill="#1D1D1B" width="2.131" height="27.784"/>
	<rect x="10.473" y="21.963" display="inline" fill="#1D1D1B" width="1.819" height="2.918"/>
	
		<rect x="11.909" y="17.57" transform="matrix(-0.8089 -0.5879 0.5879 -0.8089 11.2735 44.1992)" display="inline" fill="#1D1D1B" width="1.821" height="5.394"/>
	<rect x="13.678" y="17.586" display="inline" fill="#1D1D1B" width="1.819" height="7.262"/>
	<polygon display="inline" fill="#1D1D1B" points="8.323,13.268 13.643,13.268 13.643,16.9 15.462,16.9 15.462,13.268 
		20.787,13.268 20.787,11.449 8.323,11.449 	"/>
	<path display="inline" fill="#1D1D1B" d="M18.437,7.193l-2.628-3.617l-0.021,0.016V3.56h-2.472v0.033l-0.014-0.01L10.674,7.2
		l-0.017,0.013l0.004,0.005l-0.004,0.006l0.017,0.013l2.628,3.617l0.014-0.01v0.01h2.472v-0.022l0.021,0.015l2.628-3.617
		l0.018-0.013l-0.005-0.006l0.005-0.006L18.437,7.193z M14.876,9.035h-0.647l-1.319-1.816l1.337-1.839h0.623l1.332,1.833
		L14.876,9.035z"/>
</g>
<g id="Layer_4">
	<polygon fill="#FFFFFF" points="11.609,-8.062 11.594,-8.05 11.598,-8.044 11.594,-8.038 11.609,-8.026 14.072,-4.638 
		14.089,-4.649 16.021,-4.649 16.021,-6.354 14.932,-6.354 14.346,-7.161 14.969,-7.161 14.969,-8.866 14.302,-8.866 14.945,-9.753 
		16.021,-9.753 16.021,-11.46 14.072,-11.452 	"/>
	<polygon fill="#FFFFFF" points="19.162,-16.016 19.146,-16.004 19.15,-15.998 19.146,-15.992 19.162,-15.98 21.625,-12.592 
		21.642,-12.604 23.573,-12.604 23.573,-14.309 22.484,-14.309 21.898,-15.115 22.521,-15.115 22.521,-16.82 21.854,-16.82 
		22.498,-17.707 23.573,-17.707 23.573,-19.412 21.625,-19.404 	"/>
	<path fill="#FFFFFF" d="M21.84-11.438l-0.017,0.023h-2.668h-1.704v1.705v5.1h1.704v-0.232l1.253-1.725L21.83-4.61l1.38-1.002
		l-1.748-2.406l1.757-2.416L21.84-11.438z M19.155-9.71h1.43l-1.43,1.967V-9.71z"/>
	<polygon fill="#FFFFFF" points="8.875,-7.624 7.576,-9.413 7.576,-11.605 5.872,-11.605 5.872,-8.868 5.956,-8.868 5.896,-8.825 
		8.868,-4.735 8.914,-4.769 10.579,-4.769 10.579,-11.573 8.875,-11.573 	"/>
	<polygon fill="#FFFFFF" points="16.143,-16.558 17.441,-14.77 17.441,-12.579 19.146,-12.579 19.146,-15.314 19.062,-15.314 
		19.122,-15.358 16.15,-19.448 16.104,-19.415 14.438,-19.415 14.438,-17.645 13.14,-19.433 13.093,-19.399 11.427,-19.399 
		11.427,-12.595 13.132,-12.595 13.132,-16.542 14.431,-14.755 14.431,-12.563 16.136,-12.563 16.136,-12.611 16.143,-12.611 	"/>
	<path fill="#FFFFFF" d="M6.414-12.588l0.017-0.022h2.667h1.705v-1.705v-5.1H9.098v0.232L5.034-13.59L6.414-12.588z M9.098-14.316
		H7.669l1.429-1.968V-14.316z"/>
</g>
<g id="Layer_3" display="none">
	<rect x="13.686" y="21.979" display="inline" fill="#1D1D1B" width="1.819" height="2.92"/>
	
		<rect x="5.046" y="-0.759" transform="matrix(0.5879 0.809 -0.809 0.5879 5.5776 -3.3856)" display="inline" fill="#1D1D1B" width="2.131" height="9.08"/>
	<rect x="-1.375" y="0.042" display="inline" fill="#1D1D1B" width="19.83" height="2.131"/>
	<rect x="-2.474" y="26.176" display="inline" fill="#1D1D1B" width="9.213" height="2.131"/>
	<rect x="1.067" y="0.042" display="inline" fill="#1D1D1B" width="2.131" height="27.784"/>
	<rect x="10.473" y="21.963" display="inline" fill="#1D1D1B" width="1.819" height="2.918"/>
	
		<rect x="11.909" y="17.57" transform="matrix(-0.8089 -0.5879 0.5879 -0.8089 11.2735 44.1992)" display="inline" fill="#1D1D1B" width="1.821" height="5.394"/>
	<rect x="13.678" y="17.586" display="inline" fill="#1D1D1B" width="1.819" height="7.262"/>
	<polygon display="inline" fill="#1D1D1B" points="8.323,13.268 13.643,13.268 13.643,16.9 15.462,16.9 15.462,13.268 
		20.787,13.268 20.787,11.449 8.323,11.449 	"/>
	<path display="inline" fill="#1D1D1B" d="M18.437,7.193l-2.628-3.617l-0.021,0.016V3.56h-2.472v0.033l-0.014-0.01L10.674,7.2
		l-0.017,0.013l0.004,0.005l-0.004,0.006l0.017,0.013l2.628,3.617l0.014-0.01v0.01h2.472v-0.022l0.021,0.015l2.628-3.617
		l0.018-0.013l-0.005-0.006l0.005-0.006L18.437,7.193z M14.876,9.035h-0.647l-1.319-1.816l1.337-1.839h0.623l1.332,1.833
		L14.876,9.035z"/>
</g>
</svg>
