<?xml version="1.0" encoding="utf-8"?>
<!-- Generator: Adobe Illustrator 16.0.4, SVG Export Plug-In . SVG Version: 6.00 Build 0)  -->
<!DOCTYPE svg PUBLIC "-//W3C//DTD SVG 1.1//EN" "http://www.w3.org/Graphics/SVG/1.1/DTD/svg11.dtd">
<svg version="1.1" id="Layer_1" xmlns="http://www.w3.org/2000/svg" xmlns:xlink="http://www.w3.org/1999/xlink" x="0px" y="0px"
	 width="28.35px" height="28.35px" viewBox="0 0 28.35 28.35" enable-background="new 0 0 28.35 28.35" xml:space="preserve">
<rect x="9.282" y="13.163" fill="#E1A390" width="9.778" height="9.72"/>
<rect x="9.746" y="3.475" transform="matrix(0.6359 -0.7718 0.7718 0.6359 -0.4816 13.5984)" fill="#E1A390" width="8.848" height="7.669"/>
<g>
	<path fill="#1D1D1B" d="M20.703,11.54h-2.069l2.023-1.47l-0.023-0.032l0.023-5.321h-0.03l0.018-0.025l-6.447-4.684l-0.022-0.031
		l-0.01,0.007l-0.01-0.007l-0.023,0.031L7.686,4.691l0.023,0.033L7.7,10.046h0.015L7.7,10.066v0.006l2.02,1.468H7.731L7.677,25.16
		h4.326l-4.39,3.189l5.59-0.031l0.935-0.674l0.985,0.674l5.541,0.031l-4.39-3.189h4.441v-0.038h0.02L20.703,11.54z M10.927,8.396
		h0.024v-2.07l3.213-2.335l3.25,2.361v0.012h-0.023v2.07l-3.214,2.335l-3.25-2.361V8.396z M17.491,21.896h-6.515v-7.11h6.515V21.896
		z"/>
	<polyline fill="#1D1D1B" points="7.7,10.072 7.697,10.07 7.7,10.066 7.7,10.046 7.686,10.046 	"/>
</g>
</svg>
