<?xml version="1.0" encoding="utf-8"?>
<!-- Generator: Adobe Illustrator 16.0.4, SVG Export Plug-In . SVG Version: 6.00 Build 0)  -->
<!DOCTYPE svg PUBLIC "-//W3C//DTD SVG 1.1//EN" "http://www.w3.org/Graphics/SVG/1.1/DTD/svg11.dtd">
<svg version="1.1" xmlns="http://www.w3.org/2000/svg" xmlns:xlink="http://www.w3.org/1999/xlink" x="0px" y="0px" width="28.35px"
	 height="14.175px" viewBox="0 0 28.35 14.175" enable-background="new 0 0 28.35 14.175" xml:space="preserve">
<g id="Layer_1">
	<polygon fill="#1D1D1B" points="14.368,8.484 13.008,8.484 13.008,3.396 11.304,3.396 11.304,8.484 11.301,8.484 11.301,10.189 
		11.304,10.189 11.304,10.204 13.008,10.204 13.008,10.189 14.368,10.189 14.368,10.218 16.081,10.218 16.081,3.381 14.368,3.381 	
		"/>
	<polygon fill="#1D1D1B" points="119.979,24.827 118.344,27.079 118.344,24.83 116.639,24.83 116.639,31.638 118.344,31.638 
		118.344,29.979 121.358,25.829 	"/>
	<path fill="#1D1D1B" d="M51.303,24.946l-0.018,0.013h-1.319h-1.704v1.704v5.1h1.704v-1.69h3.795v-1.699l0.021-0.015L51.303,24.946z
		 M49.966,26.663h0.478l1.237,1.704h-1.715V26.663z"/>
	<polygon fill="#1D1D1B" points="22.927,8.498 22.273,7.598 24.598,4.4 23.218,3.398 23.198,3.425 23.198,3.411 20.17,3.411 
		20.17,5.115 21.971,5.115 20.18,7.58 20.163,7.592 22.057,10.199 22.057,10.198 22.057,10.202 24.611,10.202 24.611,8.498 	"/>
	<rect x="17.233" y="3.396" fill="#1D1D1B" width="1.704" height="6.807"/>
	<polygon fill="#1D1D1B" points="109.974,19.7 108.443,19.7 108.443,14.598 106.738,14.598 106.738,21.405 107.591,21.405 
		108.443,21.405 109.974,21.405 	"/>
	<polygon fill="#1D1D1B" points="97.709,19.639 96.179,19.639 96.179,21.344 97.709,21.344 98.562,21.344 99.414,21.344 
		99.414,14.536 97.709,14.536 	"/>
	<polygon fill="#1D1D1B" points="80.085,26.563 81.613,26.563 81.613,31.696 83.317,31.696 83.317,26.563 84.851,26.563 
		84.851,24.858 80.085,24.858 	"/>
	<polygon fill="#1D1D1B" points="102.562,19.08 104.198,21.331 105.577,20.329 103.83,17.925 105.577,15.52 104.198,14.518 
		102.562,16.771 102.562,14.521 100.857,14.521 100.857,21.328 102.562,21.328 	"/>
	<polygon fill="#1D1D1B" points="56.956,21.327 58.919,21.327 58.919,19.632 57.831,19.632 56.604,17.942 57.845,16.233 
		58.919,16.233 58.919,14.529 56.98,14.522 54.492,17.937 54.496,17.942 	"/>
	<polygon fill="#1D1D1B" points="17.074,-7.527 17.059,-7.516 17.062,-7.51 17.059,-7.504 17.074,-7.492 19.537,-4.104 
		19.554,-4.115 21.485,-4.115 21.485,-5.82 20.396,-5.82 19.811,-6.627 20.434,-6.627 20.434,-8.332 19.767,-8.332 20.41,-9.219 
		21.485,-9.219 21.485,-10.924 19.537,-10.917 	"/>
	<polygon fill="#1D1D1B" points="24.627,-15.48 24.611,-15.468 24.615,-15.462 24.611,-15.457 24.627,-15.445 27.09,-12.056 
		27.106,-12.068 29.038,-12.068 29.038,-13.773 27.949,-13.773 27.363,-14.58 27.986,-14.58 27.986,-16.285 27.319,-16.285 
		27.963,-17.171 29.038,-17.171 29.038,-18.876 27.09,-18.869 	"/>
	<polygon fill="#1D1D1B" points="8.346,-13.777 7.868,-13.777 6.641,-15.466 7.883,-17.175 8.957,-17.175 8.957,-18.88 
		7.021,-18.88 7.021,-18.864 7.009,-18.873 4.546,-15.484 4.53,-15.472 4.534,-15.466 4.53,-15.461 4.546,-15.45 7.009,-12.06 
		7.026,-12.073 10.051,-12.073 10.051,-13.777 10.051,-15.446 8.346,-15.446 	"/>
	<path fill="#1D1D1B" d="M66.292,18.075l-0.003-0.005l0.003-0.006l-0.016-0.012l-2.463-3.39l-0.013,0.009v-0.016h-3.028v5.103v1.704
		h3.023l0.018,0.013l2.463-3.39L66.292,18.075z M62.954,19.76h-0.477v-3.398h0.463l1.241,1.709L62.954,19.76z"/>
	<path fill="#1D1D1B" d="M11.32-7.502l-2.463-3.39l-0.02,0.015v-0.029H6.522v0.031l-0.014-0.01L4.047-7.496L4.03-7.484l0.004,0.006
		L4.03-7.473l0.017,0.012l2.462,3.389l0.014-0.01v0.01h2.315v-0.02l0.02,0.014l2.463-3.391l0.017-0.012l-0.004-0.004l0.004-0.006
		L11.32-7.502z M7.984-5.777H7.378L6.142-7.479l1.252-1.725h0.584l1.248,1.719L7.984-5.777z"/>
	<path fill="#1D1D1B" d="M10.517,6.763L8.054,3.375l-0.02,0.014V3.359H5.718V3.39L5.705,3.381L3.242,6.77L3.227,6.782L3.23,6.788
		L3.227,6.792l0.016,0.013l2.463,3.389l0.013-0.01v0.01h2.316v-0.021l0.02,0.014l0.531-0.73l0.568,0.783l1.38-1.002L9.639,8.006
		l0.878-1.208l0.017-0.013l-0.004-0.005l0.004-0.005L10.517,6.763z M6.574,8.49L5.337,6.788L6.59,5.064h0.584l1.248,1.717
		L7.181,8.49H6.574z"/>
	<polygon fill="#1D1D1B" points="76.353,18.777 77.886,18.777 77.886,17.072 76.353,17.072 76.353,16.211 77.886,16.211 
		77.886,14.506 75.109,14.506 75.109,14.536 74.647,14.536 74.647,21.344 76.353,21.344 	"/>
	<polygon fill="#1D1D1B" points="87.827,18.854 89.361,18.854 89.361,21.42 91.065,21.42 91.065,14.613 89.361,14.613 
		89.361,17.149 87.827,17.149 87.827,14.613 86.122,14.613 86.122,21.42 87.827,21.42 	"/>
	<path fill="#1D1D1B" d="M50.261,21.419h3.116v-0.036l1.418-1.951l-0.079-0.057l-1.564-2.154l1.173-1.615l-1.379-1.002l-0.017,0.023
		h-2.668h-1.705v1.705v5.099h1.705V21.419z M52.669,19.457l-0.187,0.257H51.34l0.758-1.044L52.669,19.457z M51.69,16.331
		l-1.43,1.967v-1.967H51.69z"/>
	<path fill="#1D1D1B" d="M27.305-10.903l-0.017,0.023H24.62h-1.704v1.705v5.099h1.704v-0.231l1.253-1.725l1.422,1.956l1.38-1.002
		l-1.748-2.405l1.757-2.416L27.305-10.903z M24.62-9.175h1.43l-1.43,1.967V-9.175z"/>
	<polygon fill="#1D1D1B" points="113.415,24.802 111.957,26.81 110.498,24.802 109.119,25.804 110.903,28.26 109.079,30.771 
		110.458,31.772 111.957,29.71 113.376,31.663 114.755,30.661 113.01,28.26 114.795,25.804 	"/>
	<polygon fill="#1D1D1B" points="14.34,-7.09 13.041,-8.879 13.041,-11.069 11.337,-11.069 11.337,-8.334 11.421,-8.334 
		11.361,-8.291 14.333,-4.201 14.379,-4.234 16.044,-4.234 16.044,-11.037 14.34,-11.037 	"/>
	<polygon fill="#1D1D1B" points="21.607,-16.022 22.906,-14.234 22.906,-12.043 24.611,-12.043 24.611,-14.778 24.526,-14.778 
		24.587,-14.822 21.615,-18.913 21.569,-18.879 19.902,-18.879 19.902,-17.109 18.604,-18.897 18.558,-18.863 16.892,-18.863 
		16.892,-12.06 18.597,-12.06 18.597,-16.007 19.896,-14.22 19.896,-12.027 21.601,-12.027 21.601,-12.075 21.607,-12.075 	"/>
	<polygon fill="#1D1D1B" points="124.875,21.526 124.875,14.723 123.17,14.723 123.17,16.492 121.871,14.705 121.825,14.738 
		120.159,14.738 120.159,21.542 121.864,21.542 121.864,17.595 123.17,19.393 123.17,21.526 	"/>
	<path fill="#1D1D1B" d="M11.879-12.053l0.017-0.022h2.667h1.705v-1.705v-5.1h-1.705v0.232l-4.063,5.593L11.879-12.053z
		 M14.562-13.78h-1.429l1.429-1.968V-13.78z"/>
</g>
<g id="Layer_2" display="none">
	<rect x="18.395" y="21.979" display="inline" fill="#1D1D1B" width="1.819" height="2.92"/>
	
		<rect x="9.755" y="-0.759" transform="matrix(0.5879 0.809 -0.809 0.5879 7.5183 -7.195)" display="inline" fill="#1D1D1B" width="2.131" height="9.08"/>
	<rect x="3.333" y="0.042" display="inline" fill="#1D1D1B" width="19.83" height="2.131"/>
	<rect x="2.235" y="26.176" display="inline" fill="#1D1D1B" width="9.213" height="2.131"/>
	<rect x="5.776" y="0.042" display="inline" fill="#1D1D1B" width="2.131" height="27.784"/>
	<rect x="15.182" y="21.963" display="inline" fill="#1D1D1B" width="1.819" height="2.918"/>
	
		<rect x="16.618" y="17.57" transform="matrix(-0.8089 -0.5879 0.5879 -0.8089 19.7917 46.9676)" display="inline" fill="#1D1D1B" width="1.821" height="5.394"/>
	<rect x="18.387" y="17.586" display="inline" fill="#1D1D1B" width="1.819" height="7.262"/>
	<polygon display="inline" fill="#1D1D1B" points="13.032,13.268 18.352,13.268 18.352,16.9 20.171,16.9 20.171,13.268 
		25.496,13.268 25.496,11.449 13.032,11.449 	"/>
	<path display="inline" fill="#1D1D1B" d="M23.146,7.193l-2.628-3.617l-0.021,0.016V3.56h-2.472v0.033l-0.014-0.01L15.383,7.2
		l-0.017,0.013l0.004,0.005l-0.004,0.006l0.017,0.013l2.628,3.617l0.014-0.01v0.01h2.472v-0.022l0.021,0.015l2.628-3.617
		l0.018-0.013l-0.005-0.006l0.005-0.006L23.146,7.193z M19.585,9.035h-0.647l-1.319-1.816l1.337-1.839h0.623l1.332,1.833
		L19.585,9.035z"/>
</g>
<g id="Layer_4">
	<polygon fill="#FFFFFF" points="16.318,-8.062 16.303,-8.05 16.307,-8.044 16.303,-8.038 16.318,-8.026 18.781,-4.638 
		18.798,-4.649 20.729,-4.649 20.729,-6.354 19.641,-6.354 19.055,-7.161 19.678,-7.161 19.678,-8.866 19.011,-8.866 19.654,-9.753 
		20.729,-9.753 20.729,-11.46 18.781,-11.452 	"/>
	<polygon fill="#FFFFFF" points="23.871,-16.016 23.855,-16.004 23.859,-15.998 23.855,-15.992 23.871,-15.98 26.334,-12.592 
		26.351,-12.604 28.282,-12.604 28.282,-14.309 27.193,-14.309 26.607,-15.115 27.23,-15.115 27.23,-16.82 26.563,-16.82 
		27.207,-17.707 28.282,-17.707 28.282,-19.412 26.334,-19.404 	"/>
	<polygon fill="#FFFFFF" points="7.59,-14.312 7.112,-14.312 5.885,-16.002 7.127,-17.711 8.201,-17.711 8.201,-19.416 
		6.266,-19.416 6.266,-19.4 6.253,-19.409 3.79,-16.02 3.774,-16.008 3.778,-16.002 3.774,-15.997 3.79,-15.985 6.253,-12.596 
		6.271,-12.608 9.295,-12.608 9.295,-14.312 9.295,-15.981 7.59,-15.981 	"/>
	<path fill="#FFFFFF" d="M10.564-8.036l-2.463-3.392l-0.02,0.015v-0.029H5.767v0.031l-0.014-0.01L3.291-8.03L3.274-8.019
		l0.004,0.006L3.274-8.007l0.017,0.012l2.462,3.389l0.014-0.01v0.01h2.315v-0.02l0.02,0.014l2.463-3.391l0.017-0.012l-0.004-0.004
		l0.004-0.006L10.564-8.036z M7.229-6.312H6.622L5.386-8.013l1.252-1.725h0.584L8.47-8.019L7.229-6.312z"/>
	<path fill="#FFFFFF" d="M26.549-11.438l-0.017,0.023h-2.668H22.16v1.705v5.1h1.704v-0.232l1.253-1.725l1.422,1.957l1.38-1.002
		l-1.748-2.406l1.757-2.416L26.549-11.438z M23.864-9.71h1.43l-1.43,1.967V-9.71z"/>
	<polygon fill="#FFFFFF" points="13.584,-7.624 12.285,-9.413 12.285,-11.605 10.581,-11.605 10.581,-8.868 10.665,-8.868 
		10.605,-8.825 13.577,-4.735 13.623,-4.769 15.288,-4.769 15.288,-11.573 13.584,-11.573 	"/>
	<polygon fill="#FFFFFF" points="20.852,-16.558 22.15,-14.77 22.15,-12.579 23.855,-12.579 23.855,-15.314 23.771,-15.314 
		23.831,-15.358 20.859,-19.448 20.813,-19.415 19.146,-19.415 19.146,-17.645 17.849,-19.433 17.802,-19.399 16.136,-19.399 
		16.136,-12.595 17.841,-12.595 17.841,-16.542 19.14,-14.755 19.14,-12.563 20.845,-12.563 20.845,-12.611 20.852,-12.611 	"/>
	<path fill="#FFFFFF" d="M11.123-12.588l0.017-0.022h2.667h1.705v-1.705v-5.1h-1.705v0.232L9.743-13.59L11.123-12.588z
		 M13.807-14.316h-1.429l1.429-1.968V-14.316z"/>
</g>
<g id="Layer_3" display="none">
	<rect x="18.395" y="21.979" display="inline" fill="#1D1D1B" width="1.819" height="2.92"/>
	
		<rect x="9.755" y="-0.759" transform="matrix(0.5879 0.809 -0.809 0.5879 7.5183 -7.195)" display="inline" fill="#1D1D1B" width="2.131" height="9.08"/>
	<rect x="3.333" y="0.042" display="inline" fill="#1D1D1B" width="19.83" height="2.131"/>
	<rect x="2.235" y="26.176" display="inline" fill="#1D1D1B" width="9.213" height="2.131"/>
	<rect x="5.776" y="0.042" display="inline" fill="#1D1D1B" width="2.131" height="27.784"/>
	<rect x="15.182" y="21.963" display="inline" fill="#1D1D1B" width="1.819" height="2.918"/>
	
		<rect x="16.618" y="17.57" transform="matrix(-0.8089 -0.5879 0.5879 -0.8089 19.7917 46.9676)" display="inline" fill="#1D1D1B" width="1.821" height="5.394"/>
	<rect x="18.387" y="17.586" display="inline" fill="#1D1D1B" width="1.819" height="7.262"/>
	<polygon display="inline" fill="#1D1D1B" points="13.032,13.268 18.352,13.268 18.352,16.9 20.171,16.9 20.171,13.268 
		25.496,13.268 25.496,11.449 13.032,11.449 	"/>
	<path display="inline" fill="#1D1D1B" d="M23.146,7.193l-2.628-3.617l-0.021,0.016V3.56h-2.472v0.033l-0.014-0.01L15.383,7.2
		l-0.017,0.013l0.004,0.005l-0.004,0.006l0.017,0.013l2.628,3.617l0.014-0.01v0.01h2.472v-0.022l0.021,0.015l2.628-3.617
		l0.018-0.013l-0.005-0.006l0.005-0.006L23.146,7.193z M19.585,9.035h-0.647l-1.319-1.816l1.337-1.839h0.623l1.332,1.833
		L19.585,9.035z"/>
</g>
</svg>
