<?xml version="1.0" encoding="utf-8"?>
<!-- Generator: Adobe Illustrator 16.0.4, SVG Export Plug-In . SVG Version: 6.00 Build 0)  -->
<!DOCTYPE svg PUBLIC "-//W3C//DTD SVG 1.1//EN" "http://www.w3.org/Graphics/SVG/1.1/DTD/svg11.dtd">
<svg version="1.1" id="Layer_1" xmlns="http://www.w3.org/2000/svg" xmlns:xlink="http://www.w3.org/1999/xlink" x="0px" y="0px"
	 width="28.35px" height="28.35px" viewBox="0 0 28.35 28.35" enable-background="new 0 0 28.35 28.35" xml:space="preserve">
<g>
	<polygon fill="#1D1D1B" points="7.61,11.368 7.614,11.37 7.613,11.367 	"/>
	<polygon fill="#1D1D1B" points="7.614,11.344 7.599,11.344 7.613,11.367 7.614,11.364 	"/>
	<path fill="#1D1D1B" d="M22.106,12.396l-0.667-0.29l-1.094,0.047l1.078-0.786L21.4,11.336l0.023-5.671h-0.029l0.019-0.027
		l-6.873-4.993l-0.022-0.033l-0.011,0.008l-0.012-0.008L14.47,0.644L7.599,5.635L7.623,5.67l-0.009,5.674h0.015l-0.015,0.02v0.006
		l1.726,1.255L8.3,12.671l-0.492,0.265H7.646v0.103l-2.943,4.089L2.419,5.259L0.787,5.573l2.649,13.761l1.489,0.328l2.71-3.764
		L7.588,27.453H12.2h4.552h4.735v-0.038h0.021l-0.006-2.448l0.021,0.021l5.479-5.722l0.033-1.114L22.106,12.396z M14.503,4.889
		l3.249,2.358L15.23,7.997l0.473,1.593l2.24-0.667v0.701l-3.426,2.49l-3.464-2.517V9.584h0.026V8.515l2.083,1.023l0.732-1.491
		l-2.228-1.096L14.503,4.889z M18.051,23.976h-6.945v-7.579h6.945V23.976z M21.496,22.615l-0.019-8.398l3.808,4.445L21.496,22.615z"
		/>
</g>
</svg>
