<?xml version="1.0" encoding="utf-8"?>
<!-- Generator: Adobe Illustrator 21.1.0, SVG Export Plug-In . SVG Version: 6.00 Build 0)  -->
<svg version="1.1" id="Layer_1" xmlns="http://www.w3.org/2000/svg" xmlns:xlink="http://www.w3.org/1999/xlink" x="0px" y="0px"
	 viewBox="0 0 28.4 36.2" style="enable-background:new 0 0 28.4 36.2;" xml:space="preserve">
<style type="text/css">
	.st0{fill:#231F20;}
</style>
<polygon class="st0" points="26.7,9.2 26.7,9.2 14.1,0.1 14.1,0 14.1,0 14.1,0 14,0.1 1.5,9.2 1.5,9.3 1.5,16.4 7.8,16.4 7.8,12.4 
	14.1,7.8 20.4,12.4 20.4,16.4 26.7,16.4 26.7,9.2 "/>
<g>
	<path class="st0" d="M26.9,18.6H1.6v6.3H10l-8.5,6.2l3.7,5.1l8.9-6.5l8.9,6.5l3.7-5.1l-8.5-6.2h8.6C26.9,24.9,26.9,18.6,26.9,18.6z
		 M5.6,20.8H4.7v2.8H3.8v-2.8H3v-0.9h2.6V20.8z M7,23.6H6v-3.7H7C7,19.9,7,23.6,7,23.6z M8.3,19.9l-0.4,0.5l-0.7-0.5H8.3z M9.8,20.8
		H9.2l-0.7,0.9l0.7,0.9h0.6v0.9H8.8l-1.3-1.8l0,0l1.3-1.8l1.1,0L9.8,20.8L9.8,20.8z M12.8,23l-0.7,0.5l-0.9-1.2v1.2h-0.9v-3.7h0.9
		v1.2l0.9-1.2l0.7,0.5l-0.9,1.3L12.8,23z M15.1,23.6h-0.8h-0.5h-0.5v-3.7h0.9v2.8h0.8C15.1,22.6,15.1,23.6,15.1,23.6z M17.5,20.8
		h-0.6l-0.3,0.5h0.4v0.9h-0.3l0.3,0.4h0.6v0.9h-1l0,0l-1.3-1.8l0,0l0,0l0,0l0,0l1.3-1.8l1.1,0C17.5,19.9,17.5,20.8,17.5,20.8z
		 M21.4,22.6v0.9h-1.6l0,0l-1.3-1.8l0,0l0,0l0,0l0,0l1.3-1.8l0,0v0h1v0.9h-0.6l-0.7,0.9l0.7,0.9h0.3v-0.9h0.9V22.6z M25.5,21.7
		L25.5,21.7l-1.3,1.8l0,0v0h-1.3v0l0,0l-1.3-1.8l0,0l0,0l0,0l0,0l1.3-1.8l0,0v0h1.3v0l0,0L25.5,21.7L25.5,21.7L25.5,21.7L25.5,21.7z
		"/>
	<polygon class="st0" points="23.4,20.8 22.7,21.7 23.4,22.7 23.7,22.7 24.4,21.7 23.7,20.8 	"/>
</g>
</svg>
