<?xml version="1.0" encoding="UTF-8"?>
<svg width="1800px" height="2500px" viewBox="0 0 1800 2500" version="1.1" xmlns="http://www.w3.org/2000/svg" xmlns:xlink="http://www.w3.org/1999/xlink">
    <!-- Generator: Sketch 53 (72520) - https://sketchapp.com -->
    <title>Untitled 2</title>
    <desc>Created with Sketch.</desc>
    <g id="Page-1" stroke="none" stroke-width="1" fill="none" fill-rule="evenodd">
        <g id="Logo" fill="#231F20" fill-rule="nonzero">
            <polygon id="Path" points="1744.8 623.3 1747.2 620.2 909.6 11.7 906.7 7.6 905.4 8.5 904.1 7.6 901.1 11.7 63.6 620.2 66.7 624.4 66.7 1101.5 487.9 1101.5 487.9 832.6 905.4 529.2 1327.4 835.9 1327.4 1101.5 1748.7 1101.5 1748.7 623.3"></polygon>
            <g id="Group" transform="translate(0.000000, 1200.000000)">
                <path d="M1759.8,47.9 L76.2,47.9 L76.2,469.6 L634.6,469.6 L67.9,881.3 L315.7,1222.4 L910.4,790.4 L1505.2,1222.4 L1753,881.3 L1186.3,469.6 L1759.8,469.6 L1759.8,47.9 Z M338,194.7 L282.7,194.7 L282.7,380.1 L221.1,380.1 L221.1,194.7 L166,194.7 L166,133.2 L338,133.2 L338,194.7 Z M430.5,378.9 L369,378.9 L369,133.2 L430.5,133.2 L430.5,378.9 Z M522.8,133.3 L496.6,169.4 L446.9,133.3 L522.8,133.3 Z M621.3,195 L582.5,195 L537.7,256.7 L582,317.7 L621.4,317.7 L621.4,378.8 L550.5,378.8 L461.7,256.6 L461.6,256.4 L551.4,133.2 L621.4,133.4 L621.4,195 L621.3,195 Z M822.7,343.5 L772.9,379.7 L713.8,298.4 L713.8,379.6 L652.3,379.6 L652.3,133.8 L713.8,133.8 L713.8,215 L772.9,133.8 L822.7,169.9 L759.6,256.7 L822.7,343.5 Z M970.4,378.9 L915.1,378.9 L884.3,378.9 L853.5,378.9 L853.5,133.2 L915.1,133.2 L915.1,317.5 L970.4,317.5 L970.4,378.9 Z M1130.2,194.5 L1091.4,194.5 L1068.2,226.5 L1092.2,226.5 L1092.2,288 L1069.7,288 L1090.9,317.1 L1130.2,317.1 L1130.2,378.7 L1060.5,378.7 L1059.9,379.1 L971,256.7 L970.4,256.2 L970.5,256.1 L970.4,255.8 L971,255.4 L1059.9,133 L1130.2,132.7 L1130.2,194.5 Z M1391.4,317.5 L1391.4,378.9 L1282.2,378.9 L1281.4,379.4 L1192.5,257 L1191.9,256.6 L1192.1,256.4 L1191.9,256.2 L1192.5,255.7 L1281.4,133.3 L1282,133.7 L1282,133.1 L1351.8,133.1 L1351.8,194.6 L1313,194.6 L1268.3,256.3 L1312.6,317.3 L1329.8,317.3 L1329.8,257 L1391.4,257 L1391.4,317.5 Z M1669.9,256.9 L1669.3,257.4 L1580.3,379.8 L1579.6,379.2 L1579.6,380 L1496,380 L1496,379.7 L1495.5,380 L1406.6,257.6 L1406,257.1 L1406.1,256.9 L1406,256.8 L1406.6,256.3 L1495.5,133.9 L1496.1,134.2 L1496.1,133.1 L1579.7,133.1 L1579.7,134.2 L1580.4,133.7 L1669.4,256 L1670,256.5 L1669.8,256.7 L1669.9,256.9 Z" id="Shape"></path>
                <polygon id="Path" points="1527.5 194.7 1482.2 256.9 1527 318.5 1548.8 318.5 1593.7 256.7 1548.6 194.7"></polygon>
            </g>
        </g>
    </g>
</svg>