<?xml version="1.0" encoding="utf-8"?>
<!-- Generator: Adobe Illustrator 19.2.1, SVG Export Plug-In . SVG Version: 6.00 Build 0)  -->
<svg version="1.1" id="Layer_1" xmlns="http://www.w3.org/2000/svg" xmlns:xlink="http://www.w3.org/1999/xlink" x="0px" y="0px"
	 viewBox="0 0 28.4 28.4" style="enable-background:new 0 0 28.4 28.4;" xml:space="preserve">
<style type="text/css">
	.st0{fill:none;stroke:#000000;stroke-width:5;stroke-miterlimit:10;}
</style>
<path d="M23,4.1l4-2.6h-4.1H19h-5.2v5.2v3.9L18.6,7c2.3,1.5,3.7,4.1,3.7,6.9c0,4.5-3.7,8.2-8.3,8.2c-4.5,0-8.3-3.7-8.3-8.2
	c0-1.3,0.3-2.5,0.9-3.7L2.3,7.9c-0.9,1.9-1.4,3.9-1.4,5.9c0,7.3,5.9,13.2,13.3,13.2c7.3,0,13.3-5.9,13.3-13.2
	C27.4,10.1,25.7,6.5,23,4.1z"/>
<polygon points="-27.8,32.7 -31.6,32.7 -36.8,32.7 -36.8,37.9 -36.8,41.7 -36.8,41.7 -31.6,37.9 -23.7,32.7 "/>
<path class="st0" d="M-32.1,35.3c3.7,1.7,6.3,5.4,6.3,9.8v0c0,5.9-4.8,10.7-10.7,10.7h0c-5.9,0-10.7-4.8-10.7-10.7v0
	c0-1.7,0.4-3.4,1.1-4.8"/>
<path class="st0" d="M-31.4,20.6L-31.4,20.6c-5.9,0-10.8-4.8-10.8-10.7v0c0-1.7,0.4-3.4,1.1-4.8c1.8-3.5,5.4-5.9,9.6-5.9h0
	c1.6,0,3.1,0.4,4.5,1c3.7,1.7,6.3,5.4,6.3,9.8v0C-20.7,15.7-25.5,20.6-31.4,20.6z"/>
</svg>
