<?xml version="1.0" encoding="UTF-8"?>
<svg xmlns="http://www.w3.org/2000/svg" xmlns:xlink="http://www.w3.org/1999/xlink" width="512" height="512" viewBox="0 0 58 57" version="1.1"><!-- Generator: Sketch 51.3 (57544) - http://www.bohemiancoding.com/sketch --><title>020 - Canvas</title><desc>Created with Sketch.</desc><defs/><g id="Page-1" stroke="none" stroke-width="1" fill="none" fill-rule="evenodd"><g id="020---Canvas" fill-rule="nonzero"><path d="M26,43 L32,43 L32,56 C32,56.5522847 31.5522847,57 31,57 L27,57 C26.4477153,57 26,56.5522847 26,56 L26,43 Z" id="Shape" fill="#AF8066"/><path d="M12,43 L19,43 L14.211,56.282 C14.0859276,56.7075189 13.6955193,56.9998162 13.252,57 L8.336,57 C8.02094892,56.9998694 7.72438113,56.8512771 7.53566547,56.5990002 C7.34694981,56.3467234 7.28815556,56.0202646 7.377,55.718 L12,43 Z" id="Shape" fill="#AF8066"/><path d="M46,43 L39,43 L43.789,56.282 C43.9140724,56.7075189 44.3044807,56.9998162 44.748,57 L49.664,57 C49.9790511,56.9998694 50.2756189,56.8512771 50.4643345,56.5990002 C50.6530502,56.3467234 50.7118444,56.0202646 50.623,55.718 L46,43 Z" id="Shape" fill="#AF8066"/><path d="M37.87,6 L53,6 C54.1045695,6 55,6.8954305 55,8 L55,39 L3,39 L3,8 C3,6.8954305 3.8954305,6 5,6 L20.13,6" id="Shape" fill="#9FC9D3"/><path d="M46.06,27.36 L45.46,28.86 C45.3477525,29.1387116 45.1161326,29.3521801 44.8292064,29.4413598 C44.5422803,29.5305396 44.2304617,29.4859777 43.98,29.32 L42.83,28.55 C42.3711173,28.2487527 41.7551825,28.373725 41.45,28.83 L40.96,29.57 C40.7622385,29.868158 40.4202534,30.0379447 40.0631927,30.0152414 C39.7061321,29.9925381 39.3884055,29.7808044 39.23,29.46 L38.51,28.01 C38.3808584,27.754001 38.1480415,27.5657519 37.8706798,27.493064 C37.5933181,27.4203761 37.2980983,27.4702432 37.06,27.63 L36.24,28.17 C35.9635131,28.3526127 35.6145234,28.3864121 35.308132,28.2602509 C35.0017405,28.1340897 34.7777368,27.8643518 34.71,27.54 L34.44,26.2 L38.41,21.74 C38.7955041,21.2679354 39.3752219,20.997414 39.984646,21.0052022 C40.5940701,21.0129904 41.1666854,21.298238 41.54,21.78 L46.06,27.36 Z" id="Shape" fill="#E6E7E8"/><path d="M54.68,38 L33,38 L31.22,29.81 L31.25,29.78 L34.44,26.2 L34.71,27.54 C34.7777368,27.8643518 35.0017405,28.1340897 35.308132,28.2602509 C35.6145234,28.3864121 35.9635131,28.3526127 36.24,28.17 L37.06,27.63 C37.2980983,27.4702432 37.5933181,27.4203761 37.8706798,27.493064 C38.1480415,27.5657519 38.3808584,27.754001 38.51,28.01 L39.23,29.46 C39.3884055,29.7808044 39.7061321,29.9925381 40.0631927,30.0152414 C40.4202534,30.0379447 40.7622385,29.868158 40.96,29.57 L41.45,28.83 C41.7551825,28.373725 42.3711173,28.2487527 42.83,28.55 L43.98,29.32 C44.2304617,29.4859777 44.5422803,29.5305396 44.8292064,29.4413598 C45.1161326,29.3521801 45.3477525,29.1387116 45.46,28.86 L46.06,27.36 L54.68,38 Z" id="Shape" fill="#7F8C8D"/><circle id="Oval" fill="#F3D55B" cx="46.5" cy="14.5" r="3.5"/><path d="M32,20.042 C31.5916662,20.0420689 31.2243085,19.7938649 31.072,19.415 C30.851,18.872 30.301,18.057 29.884,18.003 C29.625,17.967 29.219,18.282 28.8,18.841 C28.4686292,19.2828278 27.8418278,19.3723708 27.4,19.041 C26.9581722,18.7096292 26.8686292,18.0828278 27.2,17.641 C27.7996583,16.5897952 28.9380996,15.9635945 30.147,16.02 C31.914,16.254 32.83,18.42 32.929,18.67 C33.0525323,18.9782437 33.0149901,19.3277041 32.8288036,19.6026749 C32.6426171,19.8776458 32.3320758,20.0422548 32,20.042 Z" id="Shape" fill="#7F5B53"/><path d="M32,20.04 C31.6686238,20.0396582 31.3589377,19.8751806 31.1730947,19.600822 C30.9872518,19.3264633 30.9493906,18.9778591 31.072,18.67 C31.172,18.423 32.087,16.254 33.854,16.02 C35.0622239,15.9653709 36.1995045,16.5911455 36.8,17.641 C37.1313708,18.0828278 37.0418278,18.7096292 36.6,19.041 C36.1581722,19.3723708 35.5313708,19.2828278 35.2,18.841 C34.78,18.281 34.368,17.964 34.116,18.003 C33.699,18.057 33.148,18.872 32.928,19.416 C32.7747442,19.7936869 32.4075959,20.0405625 32,20.04 Z" id="Shape" fill="#7F5B53"/><path d="M36.64,4 C35.9107831,3.35688908 34.9722896,3.00139913 34,3 L32,3 C32,1.34314575 30.6568542,-6.66133815e-16 29,-8.8817842e-16 C27.3431458,-1.11022302e-15 26,1.34314575 26,3 L24,3 C21.7929143,3.00494926 20.0049493,4.7929143 20,7 C20.0081672,8.10116878 20.8988312,8.99183278 22,9 L36,9 C37.1032019,8.9967052 37.9967052,8.10320187 38,7 C38.0006309,5.85064029 37.5048509,4.75700794 36.64,4 Z M29,6 C28.4477153,6 28,5.55228475 28,5 C28,4.44771525 28.4477153,4 29,4 C29.5522847,4 30,4.44771525 30,5 C30,5.55228475 29.5522847,6 29,6 Z" id="Shape" fill="#AF8066"/><path d="M26.81,24.71 L25.93,26.89 C25.8080555,27.1933392 25.556057,27.4256821 25.2438341,27.5226457 C24.9316111,27.6196094 24.5923276,27.5708944 24.32,27.39 L23.21,26.65 C22.9545168,26.4752372 22.6357322,26.4200346 22.3363611,26.4987154 C22.03699,26.5773963 21.7865418,26.782205 21.65,27.06 L21,28.35 C20.8210392,28.7170992 20.4483978,28.95 20.04,28.95 C19.6316022,28.95 19.2589608,28.7170992 19.08,28.35 L18.43,27.06 C18.2910611,26.7818945 18.0388239,26.5773107 17.7380309,26.4987597 C17.4372379,26.4202086 17.1171773,26.4753389 16.86,26.65 L15.66,27.44 C15.4028227,27.6146611 15.0827621,27.6697914 14.7819691,27.5912403 C14.4811761,27.5126893 14.2289389,27.3081055 14.09,27.03 L13.22,25.29 L15.87,22 L21.94,19.14 L21.94,19.15 L26.81,24.71 Z" id="Shape" fill="#FFFFFF"/><path d="M38.5,38.06 L3,38 L13.22,25.29 L14.09,27.03 C14.2289389,27.3081055 14.4811761,27.5126893 14.7819691,27.5912403 C15.0827621,27.6697914 15.4028227,27.6146611 15.66,27.44 L16.86,26.65 C17.1171773,26.4753389 17.4372379,26.4202086 17.7380309,26.4987597 C18.0388239,26.5773107 18.2910611,26.7818945 18.43,27.06 L19.08,28.35 C19.2589608,28.7170992 19.6316022,28.95 20.04,28.95 C20.4483978,28.95 20.8210392,28.7170992 21,28.35 L21.65,27.06 C21.7865418,26.782205 22.03699,26.5773963 22.3363611,26.4987154 C22.6357322,26.4200346 22.9545168,26.4752372 23.21,26.65 L24.32,27.39 C24.5923276,27.5708944 24.9316111,27.6196094 25.2438341,27.5226457 C25.556057,27.4256821 25.8080555,27.1933392 25.93,26.89 L26.81,24.71 L38.5,38.06 Z" id="Shape" fill="#95A5A5"/><path d="M22,18.5 C21.9986895,20.2350096 20.7264919,21.7071847 19.01,21.96 C18.8414963,21.9882176 18.6708425,22.0016022 18.5,22 L10,22 C8.34314578,22.0027614 6.99776149,20.6618542 6.99500006,19.005 C6.99223864,17.3481458 8.33314578,16.0027615 9.99,16 L10.03,16 C10.0624355,15.7041046 10.1261242,15.4124774 10.22,15.13 C10.2304858,15.0923596 10.2438588,15.0555839 10.26,15.02 C10.371192,14.6863656 10.5222868,14.3673875 10.71,14.07 C11.6401909,12.6220427 13.3140548,11.8305575 15.0234101,12.0304075 C16.7327653,12.2302575 18.1789075,13.3865195 18.75,15.01 C20.5808936,15.1411129 21.9994441,16.6644179 22,18.5 Z" id="Shape" fill="#95A5A5"/><path d="M13.08,17.45 C12.8469712,17.5764816 12.5729763,17.6043085 12.3192769,17.5272591 C12.0655774,17.4502096 11.8533335,17.2747102 11.73,17.04 C11.3887009,16.4155893 10.7413309,16.0195512 10.03,16 C10.0624355,15.7041046 10.1261242,15.4124774 10.22,15.13 L10,15 C10.0869778,15.0016901 10.173787,15.0083677 10.26,15.02 C10.371192,14.6863656 10.5222868,14.3673875 10.71,14.07 C11.8957943,14.2918534 12.9176651,15.0380396 13.49,16.1 C13.74818,16.5861466 13.5649278,17.189538 13.08,17.45 Z" id="Shape" fill="#7F8C8D"/><path d="M1,38 L57,38 C57.5522847,38 58,38.4477153 58,39 C58,41.7614237 55.7614237,44 53,44 L5,44 C3.67391755,44 2.40214799,43.4732158 1.46446609,42.5355339 C0.526784202,41.597852 1.11022302e-16,40.3260824 0,39 C-1.11022302e-16,38.4477153 0.44771525,38 1,38 Z" id="Shape" fill="#7F5B53"/></g></g></svg>
